<?xml version="1.0" standalone="no"?>
<!DOCTYPE svg PUBLIC "-//W3C//DTD SVG 20010904//EN"
 "http://www.w3.org/TR/2001/REC-SVG-20010904/DTD/svg10.dtd">
<svg version="1.0" xmlns="http://www.w3.org/2000/svg"
 width="1008.000000pt" height="201.000000pt" viewBox="0 0 1008.000000 201.000000"
 preserveAspectRatio="xMidYMid meet">

<g transform="translate(0.000000,201.000000) scale(0.100000,-0.100000)"
fill="#ffffff" stroke="none">
<path d="M3871 1865 c-308 -69 -549 -288 -650 -590 -139 -418 57 -883 454
-1075 215 -104 479 -113 704 -23 201 80 363 233 460 436 61 127 81 202 88 339
9 163 -21 306 -92 448 -108 215 -322 389 -560 456 -83 23 -318 28 -404 9z
m328 -250 c205 -49 377 -209 452 -422 29 -83 36 -246 15 -338 -43 -180 -174
-346 -337 -423 -109 -52 -173 -67 -284 -66 -169 1 -305 61 -430 188 -131 132
-185 262 -185 440 0 59 6 127 15 161 57 217 241 403 455 459 73 19 219 19 299
1z"/>
<path d="M1110 1264 c0 -564 1 -596 18 -589 63 27 95 34 160 35 l72 0 0 317
c0 269 2 315 14 303 7 -8 109 -158 226 -332 l212 -318 72 0 71 1 220 328 220
329 5 -602 5 -601 120 0 120 0 3 863 2 862 -98 0 -99 0 -282 -415 c-155 -228
-286 -413 -291 -410 -4 3 -133 189 -287 415 l-278 410 -102 0 -103 0 0 -596z"/>
<path d="M5275 1842 c3 -11 158 -399 344 -863 l339 -844 93 0 93 0 338 845
c186 465 341 853 344 863 5 16 -4 17 -127 15 l-132 -3 -256 -638 c-140 -350
-258 -637 -261 -637 -3 0 -119 288 -259 640 l-254 640 -134 0 c-126 0 -134 -1
-128 -18z"/>
<path d="M7252 998 l3 -863 525 0 525 0 3 122 3 123 -403 2 -403 3 -3 242 -2
243 390 0 390 0 0 125 0 125 -387 2 -388 3 -3 243 -2 242 400 0 400 0 0 125 0
125 -525 0 -525 0 2 -862z"/>
<path d="M8470 985 l0 -875 280 0 280 0 0 875 0 875 -280 0 -280 0 0 -875z
m449 828 c59 -44 66 -65 69 -199 l4 -124 -256 0 -256 0 0 93 c0 142 20 195 86
223 42 18 97 2 126 -36 l21 -29 16 31 c33 65 129 86 190 41z m71 -682 l0 -39
-70 -21 -71 -22 3 -86 3 -86 65 -22 65 -22 3 -42 c3 -37 1 -42 -15 -37 -10 3
-124 41 -253 84 l-235 79 -3 44 -3 45 243 82 c134 45 249 81 256 82 7 0 12
-14 12 -39z m0 -811 l0 -150 -252 2 -253 3 0 40 0 40 218 3 217 2 0 105 0 105
35 0 35 0 0 -150z"/>
<path d="M8780 1725 c-19 -20 -25 -40 -28 -90 l-4 -65 86 0 86 0 0 65 c0 57
-3 69 -25 90 -33 34 -83 34 -115 0z"/>
<path d="M8575 1710 c-12 -14 -20 -41 -23 -81 l-4 -60 68 3 69 3 -1 59 c-1 49
-6 63 -24 78 -29 24 -63 23 -85 -2z"/>
<path d="M8670 995 l-105 -33 100 -31 c54 -17 105 -31 112 -31 9 0 13 19 13
65 0 36 -3 65 -7 64 -5 0 -55 -16 -113 -34z"/>
<path d="M1173 616 c-52 -25 -53 -26 -53 -71 0 -32 4 -45 14 -45 8 0 18 5 22
11 11 19 87 49 124 49 48 0 80 -24 80 -59 0 -28 -2 -29 -86 -44 -131 -24 -182
-64 -191 -149 -8 -68 16 -114 73 -140 59 -26 119 -20 174 15 l39 26 3 -22 c2
-18 10 -23 46 -25 l43 -3 -3 205 -3 206 -33 32 c-31 31 -37 33 -115 36 -70 2
-89 -1 -134 -22z m197 -247 c0 -53 -29 -100 -76 -120 -73 -33 -128 5 -110 76
8 32 43 55 103 65 82 13 83 13 83 -21z"/>
<path d="M1780 390 l0 -50 95 0 95 0 0 50 0 50 -95 0 -95 0 0 -50z"/>
</g>
</svg>
